# xmcd CD database file
#
# Track frame offsets:
#	150
#	33804
#	48753
#	75456
#	110282
#	135233
#	153900
#	174714
#	198676
#	231564
#
# Disc length: 3385 seconds
#
# Revision: 0
# Processed by: cddbd v1.5.2PL0 Copyright (c) Steve Scherf et al.
# Submitted via: CDex 1.51
#
DISCID=750d370a
DTITLE=Fantastic Merlins - Look Around
DYEAR=2007
DGENRE=Jazz
TTITLE0=Look around
TTITLE1=I was behind the couch all the time
TTITLE2=A very small animal
TTITLE3=It would seem
TTITLE4=Letting go
TTITLE5=Dance partner
TTITLE6=Runoff water
TTITLE7=Lenny
TTITLE8=Line
TTITLE9=Bright and wide
EXTD=YEAR: 2007
EXTT0=
EXTT1=
EXTT2=
EXTT3=
EXTT4=
EXTT5=
EXTT6=
EXTT7=
EXTT8=
EXTT9=
PLAYORDER=
